<mxfile host="app.diagrams.net" modified="2023-05-11T08:59:05.324Z" agent="Mozilla/5.0 (Windows NT 10.0; Win64; x64) AppleWebKit/537.36 (KHTML, like Gecko) Chrome/113.0.0.0 Safari/537.36" version="21.2.9" etag="dM7A_6DtoabM9T0uY0_a" type="github">
  <diagram name="第 1 页" id="LbV2Ouu0MSUz2O4njj0f">
    <mxGraphModel>
      <root>
        <mxCell id="0" />
        <mxCell id="1" parent="0" />
      </root>
    </mxGraphModel>
  </diagram>
</mxfile>
